<?xml version="1.0" encoding="utf-8"?><svg xmlns="http://www.w3.org/2000/svg" xmlns:xlink="http://www.w3.org/1999/xlink"><symbol viewBox="0 0 292.362 292.362" id="arrow-down" xmlns="http://www.w3.org/2000/svg"><path d="M286.935 69.377c-3.614-3.617-7.898-5.424-12.848-5.424H18.274c-4.952 0-9.233 1.807-12.85 5.424C1.807 72.998 0 77.279 0 82.228c0 4.948 1.807 9.229 5.424 12.847l127.907 127.907c3.621 3.617 7.902 5.428 12.85 5.428s9.233-1.811 12.847-5.428L286.935 95.074c3.613-3.617 5.427-7.898 5.427-12.847 0-4.948-1.814-9.229-5.427-12.85z"/></symbol><symbol viewBox="0 0 510 510" id="busket" xmlns="http://www.w3.org/2000/svg"><path d="M153 408c-28.05 0-51 22.95-51 51s22.95 51 51 51 51-22.95 51-51-22.95-51-51-51zM0 0v51h51l91.8 193.8-35.7 61.2c-2.55 7.65-5.1 17.85-5.1 25.5 0 28.05 22.95 51 51 51h306v-51H163.2c-2.55 0-5.1-2.55-5.1-5.1v-2.551l22.95-43.35h188.7c20.4 0 35.7-10.2 43.35-25.5L504.9 89.25c5.1-5.1 5.1-7.65 5.1-12.75 0-15.3-10.2-25.5-25.5-25.5H107.1L84.15 0H0zm408 408c-28.05 0-51 22.95-51 51s22.95 51 51 51 51-22.95 51-51-22.95-51-51-51z"/></symbol><symbol viewBox="0 0 484.955 484.955" id="busket-full" xmlns="http://www.w3.org/2000/svg"><path d="M258.005 218.355c2.3 2.3 5.4 3.5 8.5 3.5s6.1-1.2 8.5-3.5l73.9-73.9c4.7-4.7 4.7-12.3 0-17s-12.3-4.7-17 0l-65.4 65.5-26.4-26.4c-4.7-4.7-12.3-4.7-17 0s-4.7 12.3 0 17l34.9 34.8z"/><path d="M145.005 318.355h268.9c29.7 0 53.8-24.2 53.8-53.8v-113.3c0-6.6-5.4-12-12-12s-12 5.4-12 12v113.2c0 16.5-13.4 29.8-29.8 29.8h-268.9c-16.5 0-29.8-13.4-29.8-29.8v-221.2c0-.4 0-.9-.1-1.3v-.3c0-.3-.1-.6-.1-.8s-.1-.5-.2-.7c0-.1-.1-.3-.1-.4-.1-.3-.2-.5-.3-.8 0-.1-.1-.2-.1-.3-.1-.2-.2-.5-.3-.7-.1-.1-.1-.3-.2-.4l-.3-.6c-.1-.2-.2-.3-.3-.5-.1-.1-.2-.3-.3-.4-.1-.2-.3-.4-.4-.5l-.3-.3c-.2-.2-.3-.4-.5-.6-.1-.1-.2-.2-.3-.2-.2-.2-.4-.4-.6-.5l-.3-.3c-.2-.1-.4-.3-.6-.4-.2-.2-.5-.3-.7-.5-.1 0-.2-.1-.2-.2l-1.2-.6-73.9-31c-6.1-2.6-13.1.3-15.7 6.4-2.6 6 .3 13.1 6.4 15.7l66.5 28.1v297.6c0 28.2 21.7 51.3 49.3 53.6-5.6 8.4-8.9 18.5-8.9 29.4 0 29.3 23.9 53.2 53.2 53.2s53.2-23.9 53.2-53.2c0-10.8-3.2-20.8-8.7-29.2h127.3c-5.5 8.4-8.7 18.4-8.7 29.2 0 29.3 23.9 53.2 53.2 53.2s53.2-23.9 53.2-53.2-23.9-53.2-53.2-53.2h-256c-16.5 0-29.8-13.4-29.8-29.8v-39.5c8.5 5.7 18.8 9.1 29.8 9.1zm68.9 113.4c0 16.1-13.1 29.2-29.2 29.2s-29.2-13.1-29.2-29.2 13.1-29.2 29.2-29.2 29.2 13.1 29.2 29.2zm216.2 0c0 16.1-13.1 29.2-29.2 29.2s-29.2-13.1-29.2-29.2 13.1-29.2 29.2-29.2 29.2 13.1 29.2 29.2z"/></symbol><symbol viewBox="0 0 937.5 937.5" id="card" xmlns="http://www.w3.org/2000/svg"><path d="M781.25 165.531V78.125C781.195 35 746.25.055 703.125 0h-625C35 .055.055 35 0 78.125v343.75c.121 39.902 30.367 73.273 70.063 77.32l58.734 152.465c15.516 40.258 60.726 60.313 100.988 44.817l366.777-141.29c-25.343 66.2-18.132 140.461 19.461 200.551L625 770.094v151.781c0 8.633 6.992 15.625 15.625 15.625h281.25c8.633 0 15.625-6.992 15.625-15.625V406.113a204.484 204.484 0 00-59.863-144.023zm0 93.446l47.422 123.101c9.293 24.164-2.75 51.277-26.91 60.578l-27.106 10.469a78.145 78.145 0 006.594-31.25zm-750 162.898V78.125c0-25.883 20.992-46.875 46.875-46.875h625C729.008 31.25 750 52.242 750 78.125v99.313h-.137l.137.355v244.082a47.447 47.447 0 01-1.063 8.094l-143.125-143.14c-32.171-31.43-83.46-31.673-115.921-.571-32.47 31.12-34.418 82.37-4.391 115.847l61.016 66.645H78.125c-25.883 0-46.875-20.992-46.875-46.875zM231.422 500l-111.11 42.777L103.876 500zm-12.875 167.309c-24.156 9.312-51.285-2.73-60.594-26.887l-26.36-68.547L318.11 500v-.094h257.047l20.309 22.14zM906.25 906.25h-250v-125h250zm0-156.25H649.297l-6.777-10.828c-38.098-60.883-39.614-137.781-3.957-200.11a15.618 15.618 0 00-2.047-18.312L508.473 381.062c-19.094-20.898-18.02-53.207 2.422-72.78 20.449-19.579 52.773-19.259 72.82.71l248.988 248.93 22.094-22.094-57.813-57.812 16.032-6.25c40.226-15.52 60.273-60.692 44.797-100.942l-52.887-137.328 50.617 50.723a173.037 173.037 0 0150.707 121.894zm0 0"/><path d="M178.125 218.75c22.438 0 40.625-18.188 40.625-40.625v-75c0-22.438-18.188-40.625-40.625-40.625h-75C80.687 62.5 62.5 80.688 62.5 103.125v75c0 22.438 18.188 40.625 40.625 40.625zM93.75 178.125V156.25H125V125H93.75v-21.875c0-5.176 4.2-9.375 9.375-9.375h75c5.176 0 9.375 4.2 9.375 9.375V125h-31.25v31.25h31.25v21.875c0 5.176-4.2 9.375-9.375 9.375h-75c-5.176 0-9.375-4.2-9.375-9.375zm-15.625 87.5h62.5v31.25h-62.5zm0 93.75h62.5v31.25h-62.5zm281.25 0h62.5v31.25h-62.5zm-187.5-93.75h62.5v31.25h-62.5zm93.75 0h62.5v31.25h-62.5zm93.75 0h62.5v31.25h-62.5zm296.875-187.5h31.25V125h-31.25zm-62.5 0H625V125h-31.25zm-62.5 0h31.25V125h-31.25zm-62.5 0H500V125h-31.25zM687.5 812.5h31.25v31.25H687.5zm0 0"/></symbol><symbol viewBox="0 0 96.124 96.123" id="facebook" xmlns="http://www.w3.org/2000/svg"><path d="M72.089.02L59.624 0C45.62 0 36.57 9.285 36.57 23.656v10.907H24.037a1.96 1.96 0 00-1.96 1.961v15.803a1.96 1.96 0 001.96 1.96H36.57v39.876a1.96 1.96 0 001.96 1.96h16.352a1.96 1.96 0 001.96-1.96V54.287h14.654a1.96 1.96 0 001.96-1.96l.006-15.803a1.963 1.963 0 00-1.961-1.961H56.842v-9.246c0-4.444 1.059-6.7 6.848-6.7l8.397-.003a1.96 1.96 0 001.959-1.96V1.98A1.96 1.96 0 0072.089.02z"/></symbol><symbol viewBox="0 0 499.42 499.42" id="general" xmlns="http://www.w3.org/2000/svg"><path d="M277.087 180.337c12.604-13.077 19.558-30.285 19.558-48.467 0-38.499-31.31-69.81-69.809-69.81-38.496 0-69.809 31.311-69.809 69.81 0 18.176 6.945 35.39 19.564 48.467 2.226 2.313 2.17 5.998-.143 8.229a5.807 5.807 0 01-4.034 1.635c-1.528 0-3.042-.6-4.183-1.784-14.724-15.256-22.834-35.342-22.834-56.547 0-44.914 36.532-81.452 81.452-81.452 44.917 0 81.452 36.538 81.452 81.452 0 21.205-8.104 41.291-22.828 56.547-2.223 2.32-5.9 2.375-8.227.149a5.8 5.8 0 01-.159-8.229zm-136.284 43.848a5.828 5.828 0 00.091-8.232c-22.116-22.597-34.3-52.458-34.3-84.082 0-66.296 53.938-120.236 120.236-120.236 66.295 0 120.234 53.94 120.234 120.236 0 31.63-12.179 61.491-34.301 84.088a5.813 5.813 0 00.092 8.227 5.81 5.81 0 004.067 1.662 5.834 5.834 0 004.159-1.744c24.265-24.786 37.618-57.546 37.618-92.232C358.7 59.153 299.543 0 226.83 0 154.114 0 94.96 59.153 94.96 131.87c0 34.687 13.363 67.44 37.616 92.227 2.247 2.292 5.937 2.332 8.227.088zM383.654 473.81l-6.681 21.495a5.856 5.856 0 01-5.596 4.115h-.006l-124.414-.182a5.858 5.858 0 01-5.486-3.807 5.839 5.839 0 011.632-6.467c-.018 0 .993-1.113.911-3.111-.085-1.961-1.315-6.187-8.574-12.403-2.268-2.149-51.055-48.445-71.843-84.657-5.742-8.08-48.241-69.216-38.06-96.1 2.408-6.369 7.419-10.644 14.529-12.379 3.206-1.139 6.479-1.717 9.733-1.717 18.669 0 32.516 18.328 42.624 31.706 2.226 2.959 5.033 6.667 7.134 8.976.91-4.074 1.888-13.208 1.79-33.686 0-.207.006-.426.03-.646.037-.305 3.105-30.957 3.285-128.828-1.184-.244-2.338-.761-3.203-1.735a33.875 33.875 0 01-8.549-22.521c0-18.712 15.22-33.938 33.932-33.938s33.932 15.226 33.932 33.938c0 7.389-2.502 14.428-6.901 20.283.124 1.184.249 2.415.387 3.742 1.142 11.305 2.368 26.101 3.659 41.763 1.692 20.584 3.897 47.246 5.614 59.542 5.078-2.594 12.306-5.352 20.137-5.352 8.616 0 20.222 3.349 28.832 18.371 4.007-1.529 9.768-3.179 16.1-3.179 10.218 0 23.748 4.183 31.664 23.479 7.185 1.279 23.047 5.389 33.381 17.756 7.246 8.665 10.363 19.547 9.292 32.37.899 8.046 8.122 80.33-19.285 133.172zM204.532 131.87c0 2.362.438 4.664 1.16 6.872 3.574-21.062 12.607-25.815 19.966-25.815 9.931 0 19.129 9.252 23.352 17.747-.643-11.731-10.291-21.103-22.18-21.103-12.303-.006-22.298 10.002-22.298 22.299zm186.672 209.568a6.18 6.18 0 01-.012-1.261c.92-9.84-1.267-18.023-6.516-24.332-10.235-12.331-29.015-14.157-29.21-14.176-2.302-.213-4.286-1.747-5.035-3.927-4.402-12.781-11.552-18.986-21.854-18.986-8.378 0-15.795 4.158-15.868 4.201a5.857 5.857 0 01-4.725.481 5.828 5.828 0 01-3.532-3.167c-5.042-11.24-11.85-16.708-20.807-16.708-10.382 0-20.21 7.331-20.308 7.41a5.856 5.856 0 01-5.236.968c-5.413-1.607-5.985-1.777-11.886-73.328-1.34-16.146-2.887-34.924-4.196-46.829-.076-.387-.137-.749-.131-1.136-.53-4.683-1.017-8.205-1.428-9.819a5.953 5.953 0 01-.804-1.951c-1.212-5.624-8.948-14.237-14.018-14.237-3.318 0-7.721 5.913-9.28 22.56-.006 101.366-2.947 134.848-3.321 138.647.131 31.943-2.128 40.511-6.086 44.487-1.677 1.687-3.766 2.575-6.049 2.575-6.129 0-10.799-6.18-17.869-15.533-8.625-11.423-20.429-27.048-33.265-27.048-1.985 0-4.022.378-6.038 1.12-.225.08-.459.146-.697.207-4.472 1.035-5.849 3.312-6.567 5.188-6.092 16.1 19.342 60.916 36.809 85.376.119.152.216.322.317.499 19.848 34.727 69.182 81.552 69.672 82.015 8.162 6.99 12.415 14.213 12.452 21.275 0 .524-.024 1.023-.061 1.511l111.386.164 5.56-17.865c.104-.335.23-.664.396-.98 27.048-51.579 18.31-126.647 18.207-127.401z"/></symbol><symbol viewBox="0 0 60 60" id="house" xmlns="http://www.w3.org/2000/svg"><path d="M14 36.182h14v-10H14v10zm2-2v-3h10v3H16zm10-6v1H16v-1h10zm-12 12v12h14v-12H14zm6 2v3h-4v-3h4zm-4 5h4v3h-4v-3zm6 3v-3h4v3h-4zm4-5h-4v-3h4v3zm6-9h14v-10H32v10zm2-2v-1h10v1H34zm10-6v3H34v-3h10z"/><path d="M59 48.182a1 1 0 00-1 1v1h-1v-1a1 1 0 10-2 0v1h-1V29.978a3.975 3.975 0 001.626.363 4.01 4.01 0 003.984-4.322 4.017 4.017 0 00-1.522-2.833L32.722 3.345 30 .818 27.343 3.29 1.913 23.186a4.01 4.01 0 00-1.522 2.833 4.01 4.01 0 001.057 3.038 3.968 3.968 0 004.553.922v20.204H5v-1a1 1 0 10-2 0v1H2v-1a1 1 0 10-2 0v9a1 1 0 102 0v-1h1v1a1 1 0 102 0v-1h1v2h48v-2h1v1a1 1 0 102 0v-1h1v1a1 1 0 102 0v-9a1 1 0 00-1-1.001zM2.912 27.695a1.977 1.977 0 01-.527-1.518 1.975 1.975 0 01.761-1.416L28.64 4.811l1.361-1.265 1.424 1.319 25.43 19.896c.446.349.716.852.761 1.416a1.979 1.979 0 01-.527 1.518 1.99 1.99 0 01-2.686.223l-.403-.31-24-18.5-23.61 18.2-.001.001-.791.609a1.99 1.99 0 01-2.686-.223zM2 55.182v-3h1v3H2zm3 0v-3h1v3H5zm29 2v-15h10v15H34zm18 0h-6v-17H32v17H8V28.591l22-16.959 22 16.959v28.591zm2-2v-3h1v3h-1zm3 0v-3h1v3h-1z"/></symbol><symbol viewBox="0 0 512 512" id="instagram" xmlns="http://www.w3.org/2000/svg"><path d="M352 0H160C71.648 0 0 71.648 0 160v192c0 88.352 71.648 160 160 160h192c88.352 0 160-71.648 160-160V160C512 71.648 440.352 0 352 0zm112 352c0 61.76-50.24 112-112 112H160c-61.76 0-112-50.24-112-112V160C48 98.24 98.24 48 160 48h192c61.76 0 112 50.24 112 112v192z"/><path d="M256 128c-70.688 0-128 57.312-128 128s57.312 128 128 128 128-57.312 128-128-57.312-128-128-128zm0 208c-44.096 0-80-35.904-80-80 0-44.128 35.904-80 80-80s80 35.872 80 80c0 44.096-35.904 80-80 80z"/><circle cx="393.6" cy="118.4" r="17.056"/></symbol><symbol viewBox="0 0 492 492" id="left-arrow" xmlns="http://www.w3.org/2000/svg"><path d="M198.608 246.104L382.664 62.04c5.068-5.056 7.856-11.816 7.856-19.024 0-7.212-2.788-13.968-7.856-19.032l-16.128-16.12C361.476 2.792 354.712 0 347.504 0s-13.964 2.792-19.028 7.864L109.328 227.008c-5.084 5.08-7.868 11.868-7.848 19.084-.02 7.248 2.76 14.028 7.848 19.112l218.944 218.932c5.064 5.072 11.82 7.864 19.032 7.864 7.208 0 13.964-2.792 19.032-7.864l16.124-16.12c10.492-10.492 10.492-27.572 0-38.06L198.608 246.104z"/></symbol><symbol viewBox="0 0 492.004 492.004" id="right-arrow" xmlns="http://www.w3.org/2000/svg"><path d="M382.678 226.804L163.73 7.86C158.666 2.792 151.906 0 144.698 0s-13.968 2.792-19.032 7.86l-16.124 16.12c-10.492 10.504-10.492 27.576 0 38.064L293.398 245.9l-184.06 184.06c-5.064 5.068-7.86 11.824-7.86 19.028 0 7.212 2.796 13.968 7.86 19.04l16.124 16.116c5.068 5.068 11.824 7.86 19.032 7.86s13.968-2.792 19.032-7.86L382.678 265c5.076-5.084 7.864-11.872 7.848-19.088.016-7.244-2.772-14.028-7.848-19.108z"/></symbol><symbol viewBox="0 0 512 512" id="sale" xmlns="http://www.w3.org/2000/svg"><path d="M456.828 0H338.355c-26.007 0-60.789 14.406-79.175 32.797L16.11 275.863C5.718 286.25 0 300.102 0 314.871c0 14.77 5.723 28.621 16.11 39.008L158.116 495.89c10.388 10.387 24.239 16.11 39.009 16.11 14.766 0 28.621-5.723 39.012-16.11l243.066-243.07C497.593 234.434 512 199.652 512 173.645V55.165C511.996 24.745 487.246 0 456.828 0zM482 173.645c0 18.09-11.219 45.175-24.008 57.964l-243.07 243.067c-4.723 4.722-11.043 7.324-17.797 7.324s-13.07-2.602-17.793-7.32L37.324 332.664C32.602 327.941 30 321.621 30 314.871c0-6.754 2.598-13.074 7.32-17.793l243.07-243.07C293.18 41.218 320.267 30 338.356 30h118.473c13.879 0 25.168 11.29 25.172 25.164zm0 0"/><path d="M139.309 331.492c-5.454-5.449-4.09-13.402 4.086-21.586 9.546-9.543 16.476-7.84 20-11.36 4.09-4.089.68-11.136-1.934-13.745-7.5-7.5-23.973 5.793-30.676 12.496-13.066 13.066-21.812 33.402-4.887 50.332 26.926 26.926 58.172-14.77 75.215 2.273 6.817 6.817 3.977 15.79-2.84 22.61-11.59 11.586-23.406 5.906-28.062 10.562-3.524 3.524-1.703 11.25 1.476 14.434 6.59 6.59 25.45 2.726 40.333-12.16 15.68-15.676 18.632-35.45 2.386-51.696-29.426-29.422-61.011 11.934-75.097-2.16zm158.828-48.847l-93.395-49.536c-4.43-2.386-10.226.227-14.543 4.547-4.203 4.2-6.816 9.996-4.43 14.43l49.536 93.39c.34.567.683 1.133.91 1.364 3.637 3.633 11.476.793 15.45-3.184 2.5-2.496 3.64-5.226 2.046-7.953l-10.793-19.426 26.02-26.02 19.425 10.798c2.73 1.586 5.453.453 7.953-2.047 3.977-3.977 6.704-11.934 3.18-15.453-.336-.34-.793-.57-1.36-.91zm-63.739 18.976l-24.996-44.77 44.766 25zm108.61-75.211l-27.723 27.723-65.555-65.559c-3.183-3.18-8.292-.793-11.93 2.84-3.745 3.75-6.023 8.75-2.84 11.934l73.849 73.851c3.07 3.067 7.84 1.477 11.136-1.82l36.016-36.016c2.953-2.953 1.137-7.726-2.047-10.906-3.293-3.297-7.95-5.004-10.906-2.047zm59.418-59.418l-32.153 32.153-22.836-22.836 17.27-17.27c3.18-3.18 1.59-7.726-1.023-10.34-3.067-3.066-7.614-4.199-10.567-1.246l-17.27 17.266-22.722-22.723 32.152-32.148c2.953-2.957 1.59-7.727-1.93-11.25-3.07-3.067-7.84-4.887-11.023-1.707L291.88 137.34c-3.293 3.293-4.887 8.066-1.817 11.133l73.739 73.734c3.066 3.07 7.836 1.48 11.133-1.816l40.445-40.446c3.183-3.18 1.363-7.953-1.703-11.02-3.524-3.523-8.297-4.886-11.25-1.933zm15.043-86.594c-3.95 0-7.82 1.602-10.61 4.391a15.114 15.114 0 00-4.39 10.61 15.09 15.09 0 004.39 10.601c2.79 2.8 6.66 4.398 10.61 4.398s7.808-1.597 10.601-4.398a15.084 15.084 0 004.399-10.602c0-3.949-1.602-7.82-4.399-10.609a15.103 15.103 0 00-10.601-4.39zm0 0"/></symbol><symbol viewBox="0 0 56.966 56.966" id="search" xmlns="http://www.w3.org/2000/svg"><path d="M55.146 51.887L41.588 37.786A22.926 22.926 0 0046.984 23c0-12.682-10.318-23-23-23s-23 10.318-23 23 10.318 23 23 23c4.761 0 9.298-1.436 13.177-4.162l13.661 14.208c.571.593 1.339.92 2.162.92.779 0 1.518-.297 2.079-.837a3.004 3.004 0 00.083-4.242zM23.984 6c9.374 0 17 7.626 17 17s-7.626 17-17 17-17-7.626-17-17 7.626-17 17-17z"/></symbol></svg>